<svg width="24" height="24" viewBox="0 0 24 24" fill="none" xmlns="http://www.w3.org/2000/svg">
<path d="M22.9894 0.225464C22.1304 0.0789554 21.2605 0.00354172 20.3889 5.16212e-06C17.4149 -0.00240901 14.5029 0.842004 12 2.43259C9.49071 0.862889 6.57917 0.0392004 3.61113 0.0593365C2.73946 0.062873 1.86961 0.138287 1.01058 0.284796C0.729202 0.332829 0.474389 0.47876 0.29203 0.69631C0.109671 0.913859 0.0117498 1.18873 0.0159008 1.47142V15.711C0.0133342 15.8853 0.0496075 16.0581 0.12214 16.217C0.194672 16.3759 0.301681 16.517 0.435552 16.6303C0.569423 16.7436 0.726866 16.8263 0.896679 16.8725C1.06649 16.9187 1.2445 16.9272 1.41804 16.8976C3.13538 16.6032 4.89487 16.652 6.59285 17.0413C8.29084 17.4305 9.89298 18.1523 11.3049 19.164L11.4487 19.2471H11.5806C11.7135 19.3019 11.856 19.3302 12 19.3302C12.144 19.3302 12.2865 19.3019 12.4194 19.2471H12.5513L12.6951 19.164C14.0972 18.1296 15.6947 17.3845 17.393 16.9728C19.0913 16.561 20.8558 16.4911 22.582 16.767C22.7555 16.7967 22.9335 16.7881 23.1033 16.7419C23.2731 16.6957 23.4306 16.6131 23.5644 16.4998C23.6983 16.3865 23.8053 16.2453 23.8779 16.0864C23.9504 15.9276 23.9867 15.7548 23.9841 15.5804V1.34089C23.9716 1.07053 23.8662 0.812502 23.6853 0.609621C23.5044 0.406739 23.2588 0.271193 22.9894 0.225464ZM10.8016 15.9957C8.58439 14.8408 6.11643 14.238 3.61113 14.2395C3.21566 14.2395 2.82018 14.2395 2.41272 14.2395V2.37326C2.81186 2.35048 3.21199 2.35048 3.61113 2.37326C6.1678 2.37046 8.66868 3.11335 10.8016 4.50919V15.9957ZM21.5873 14.287C21.1798 14.287 20.7843 14.287 20.3889 14.287C17.8836 14.2855 15.4156 14.8882 13.1984 16.0432V4.50919C15.3313 3.11335 17.8322 2.37046 20.3889 2.37326C20.788 2.35048 21.1881 2.35048 21.5873 2.37326V14.287ZM22.9894 19.2115C22.1304 19.065 21.2605 18.9896 20.3889 18.986C17.4149 18.9836 14.5029 19.828 12 21.4186C9.49714 19.828 6.58515 18.9836 3.61113 18.986C2.73946 18.9896 1.86961 19.065 1.01058 19.2115C0.854581 19.236 0.705014 19.2908 0.57048 19.3728C0.435946 19.4547 0.3191 19.5622 0.226661 19.689C0.134222 19.8158 0.0680141 19.9595 0.0318441 20.1117C-0.00432586 20.264 -0.00974414 20.4218 0.0159008 20.5761C0.0768024 20.8843 0.258567 21.156 0.521379 21.3317C0.78419 21.5074 1.10662 21.5728 1.41804 21.5136C3.13538 21.2191 4.89487 21.268 6.59285 21.6572C8.29084 22.0465 9.89298 22.7682 11.3049 23.78C11.5079 23.9231 11.7508 24 12 24C12.2492 24 12.4921 23.9231 12.6951 23.78C14.107 22.7682 15.7092 22.0465 17.4071 21.6572C19.1051 21.268 20.8646 21.2191 22.582 21.5136C22.8934 21.5728 23.2158 21.5074 23.4786 21.3317C23.7414 21.156 23.9232 20.8843 23.9841 20.5761C24.0097 20.4218 24.0043 20.264 23.9682 20.1117C23.932 19.9595 23.8658 19.8158 23.7733 19.689C23.6809 19.5622 23.5641 19.4547 23.4295 19.3728C23.295 19.2908 23.1454 19.236 22.9894 19.2115Z" fill="#7A7A7A"/>
</svg>
