<svg width="25" height="24" viewBox="0 0 25 24" fill="none" xmlns="http://www.w3.org/2000/svg">
<path d="M20.66 4.99998C19.5999 3.93719 18.1948 3.28852 16.6983 3.17115C15.2018 3.05378 13.7127 3.47545 12.5 4.35998C11.2276 3.41362 9.64396 2.98449 8.06789 3.15902C6.49182 3.33355 5.04041 4.09876 4.00594 5.30057C2.97148 6.50237 2.43079 8.0515 2.49277 9.636C2.55475 11.2205 3.21479 12.7227 4.33997 13.84L10.55 20.06C11.07 20.5718 11.7704 20.8586 12.5 20.8586C13.2296 20.8586 13.93 20.5718 14.45 20.06L20.66 13.84C21.8275 12.6652 22.4829 11.0763 22.4829 9.41998C22.4829 7.76371 21.8275 6.17472 20.66 4.99998ZM19.25 12.46L13.04 18.67C12.9693 18.7413 12.8852 18.798 12.7925 18.8366C12.6998 18.8753 12.6004 18.8952 12.5 18.8952C12.3995 18.8952 12.3001 18.8753 12.2074 18.8366C12.1147 18.798 12.0306 18.7413 11.96 18.67L5.74997 12.43C4.96573 11.6283 4.52658 10.5514 4.52658 9.42998C4.52658 8.30852 4.96573 7.23164 5.74997 6.42998C6.54913 5.64097 7.62694 5.19855 8.74997 5.19855C9.873 5.19855 10.9508 5.64097 11.75 6.42998C11.8429 6.52371 11.9535 6.59811 12.0754 6.64887C12.1973 6.69964 12.328 6.72578 12.46 6.72578C12.592 6.72578 12.7227 6.69964 12.8445 6.64887C12.9664 6.59811 13.077 6.52371 13.17 6.42998C13.9691 5.64097 15.0469 5.19855 16.17 5.19855C17.293 5.19855 18.3708 5.64097 19.17 6.42998C19.965 7.22113 20.4186 8.29217 20.4335 9.41367C20.4485 10.5352 20.0236 11.6179 19.25 12.43V12.46Z" fill="#7A7A7A"/>
</svg>
